<svg xmlns="http://www.w3.org/2000/svg" version="1.1" xmlns:xlink="http://www.w3.org/1999/xlink" xmlns:svgjs="http://svgjs.dev/svgjs" width="1500" height="1500" viewBox="0 0 1500 1500"><rect width="1500" height="1500" fill="#e5f141"></rect><g transform="matrix(0.6666666666666666,0,0,0.6666666666666666,249.39393939393938,580.4076379625699)"><svg viewBox="0 0 396 134" data-background-color="#e5f141" preserveAspectRatio="xMidYMid meet" height="507" width="1500" xmlns="http://www.w3.org/2000/svg" xmlns:xlink="http://www.w3.org/1999/xlink"><g id="tight-bounds" transform="matrix(1,0,0,1,0.2400000000000091,0.23484175448410838)"><svg viewBox="0 0 395.52 133.5303164910318" height="133.5303164910318" width="395.52"><g><svg viewBox="0 0 671.0626838661613 226.55545247261767" height="133.5303164910318" width="395.52"><g transform="matrix(1,0,0,1,275.5426838661613,61.40117864830363)"><svg viewBox="0 0 395.5199999999999 103.75309517601042" height="103.75309517601042" width="395.5199999999999"><g id="textblocktransform"><svg viewBox="0 0 395.5199999999999 103.75309517601042" height="103.75309517601042" width="395.5199999999999" id="textblock"><g><svg viewBox="0 0 395.5199999999999 103.75309517601042" height="103.75309517601042" width="395.5199999999999"><g transform="matrix(1,0,0,1,0,0)"><svg width="395.5199999999999" viewBox="3.88 -37.8 194.23000000000002 50.3" height="103.75309517601042" data-palette-color="#4d98e4"><g class="wordmark-text-0" data-fill-palette-color="primary" id="text-0"><path d="M10-15.6L10 0 4.75 0 4.75-32.25 3.88-37.25Q4.63-37.38 5.71-37.48 6.8-37.58 8.03-37.65 9.25-37.73 10.48-37.76 11.7-37.8 12.68-37.8L12.68-37.8Q15.55-37.8 18.19-37.29 20.83-36.77 22.85-35.58 24.88-34.38 26.08-32.43 27.28-30.48 27.28-27.6L27.28-27.6Q27.28-24.1 26.03-21.79 24.78-19.48 22.5-18.1 20.23-16.73 17.04-16.16 13.85-15.6 10-15.6L10-15.6ZM9.5-33.98L10-28.68 10-19.13Q13-19.13 15.33-19.48 17.65-19.83 19.25-20.74 20.85-21.65 21.68-23.25 22.5-24.85 22.5-27.38L22.5-27.38Q22.5-29.25 21.71-30.58 20.93-31.9 19.68-32.75 18.43-33.6 16.88-33.99 15.33-34.38 13.8-34.38L13.8-34.38Q13.38-34.38 12.79-34.34 12.2-34.3 11.6-34.25 11-34.2 10.44-34.13 9.88-34.05 9.5-33.98L9.5-33.98ZM39.75-26.88L39.75 0 35 0 35-26.38 39.75-26.88ZM34.85-32.5L34.85-37.5 39.9-37.5 39.9-32.5 34.85-32.5ZM54.75-21.1L54.75 0 50 0 50-27.5 54.75-28 54.75-23.43 56.27-26.1Q56.72-26.4 57.42-26.73 58.12-27.05 58.98-27.31 59.85-27.58 60.85-27.75 61.85-27.93 62.87-27.93L62.87-27.93Q64.84-27.93 66.21-27.29 67.57-26.65 68.42-25.45 69.27-24.25 69.63-22.55 70-20.85 70-18.75L70-18.75 70 0 65.25 0 65.25-18.75Q65.25-20.1 65.06-21.08 64.87-22.05 64.41-22.69 63.95-23.33 63.17-23.63 62.4-23.93 61.25-23.93L61.25-23.93Q60.4-23.93 59.52-23.66 58.65-23.4 57.81-22.99 56.97-22.58 56.18-22.08 55.4-21.58 54.75-21.1L54.75-21.1ZM84.74-20.68L84.74-4 88.84-4Q91.14-4 92.83-4.76 94.52-5.53 95.61-6.9 96.69-8.28 97.22-10.2 97.74-12.13 97.74-14.45L97.74-14.45Q97.74-16.9 97.27-18.69 96.79-20.48 95.97-21.64 95.14-22.8 94.06-23.36 92.97-23.93 91.74-23.93L91.74-23.93Q90.52-23.93 89.46-23.61 88.39-23.3 87.51-22.83 86.62-22.35 85.92-21.78 85.22-21.2 84.74-20.68L84.74-20.68ZM84.74 12.5L79.99 12.5 79.99-27.5 84.74-28 84.74-23.6 87.12-26.78Q87.84-27.2 89.18-27.56 90.52-27.93 92.47-27.93L92.47-27.93Q94.54-27.93 96.37-26.95 98.19-25.98 99.56-24.18 100.92-22.38 101.71-19.83 102.49-17.28 102.49-14.13L102.49-14.13Q102.49-11.05 101.49-8.46 100.49-5.88 98.66-3.99 96.82-2.1 94.21-1.05 91.59 0 88.37 0L88.37 0 84.74 0 84.74 12.5ZM119.97 0.43L119.97 0.43Q117.19 0.43 114.9-0.66 112.62-1.75 110.97-3.66 109.32-5.58 108.4-8.19 107.49-10.8 107.49-13.83L107.49-13.83Q107.49-16.85 108.37-19.44 109.24-22.03 110.87-23.91 112.49-25.8 114.8-26.86 117.12-27.93 119.97-27.93L119.97-27.93Q122.74-27.93 125.04-26.86 127.34-25.8 128.99-23.91 130.64-22.03 131.56-19.44 132.49-16.85 132.49-13.83L132.49-13.83Q132.49-10.8 131.6-8.19 130.72-5.58 129.09-3.66 127.47-1.75 125.14-0.66 122.82 0.43 119.97 0.43ZM127.74-13.15L127.74-13.15Q127.74-15.18 127.3-17.13 126.87-19.07 125.92-20.61 124.97-22.15 123.47-23.1 121.97-24.05 119.87-24.05L119.87-24.05Q117.87-24.05 116.42-23.23 114.97-22.4 114.04-21.03 113.12-19.65 112.68-17.9 112.24-16.15 112.24-14.3L112.24-14.3Q112.24-12.28 112.68-10.33 113.12-8.38 114.05-6.85 114.99-5.33 116.48-4.39 117.97-3.45 120.07-3.45L120.07-3.45Q122.04-3.45 123.49-4.28 124.94-5.1 125.89-6.46 126.84-7.83 127.29-9.58 127.74-11.33 127.74-13.15ZM144.74-26.88L144.74 0 139.99 0 139.99-26.38 144.74-26.88ZM139.84-32.5L139.84-37.5 144.89-37.5 144.89-32.5 139.84-32.5ZM159.74-21.1L159.74 0 154.99 0 154.99-27.5 159.74-28 159.74-23.43 161.26-26.1Q161.71-26.4 162.41-26.73 163.11-27.05 163.97-27.31 164.84-27.58 165.84-27.75 166.84-27.93 167.86-27.93L167.86-27.93Q169.84-27.93 171.2-27.29 172.56-26.65 173.41-25.45 174.26-24.25 174.62-22.55 174.99-20.85 174.99-18.75L174.99-18.75 174.99 0 170.24 0 170.24-18.75Q170.24-20.1 170.05-21.08 169.86-22.05 169.4-22.69 168.94-23.33 168.16-23.63 167.39-23.93 166.24-23.93L166.24-23.93Q165.39-23.93 164.51-23.66 163.64-23.4 162.8-22.99 161.96-22.58 161.17-22.08 160.39-21.58 159.74-21.1L159.74-21.1ZM189.73-23.5L189.73-9.4Q189.73-7.75 189.92-6.64 190.11-5.53 190.47-4.84 190.83-4.15 191.37-3.86 191.91-3.58 192.61-3.58L192.61-3.58Q193.16-3.58 193.61-3.64 194.06-3.7 194.38-3.8L194.38-3.8Q194.76-3.9 195.06-4.03L195.06-4.03 196.78-1Q196.58-0.8 196.15-0.56 195.71-0.33 195.11-0.1 194.51 0.13 193.75 0.28 192.98 0.43 192.11 0.43L192.11 0.43Q189.86 0.43 188.46-0.4 187.06-1.23 186.28-2.65 185.51-4.08 185.25-5.96 184.98-7.85 184.98-10L184.98-10 184.98-23.5 181.23-23.5 181.23-27.5 184.98-27.5 184.98-32.73 189.61-35.5 189.61-27.5 198.11-27.5 197.61-23.5 189.73-23.5Z" fill="#4d98e4" data-fill-palette-color="primary"></path></g></svg></g></svg></g></svg></g></svg></g><g><svg viewBox="0 0 226.55545247261767 226.55545247261767" height="226.55545247261767" width="226.55545247261767"><g><svg></svg></g><g id="icon-0"><svg viewBox="0 0 226.55545247261767 226.55545247261767" height="226.55545247261767" width="226.55545247261767"><g><path d="M0 113.278c0-62.562 50.716-113.278 113.278-113.278 62.562 0 113.278 50.716 113.277 113.278 0 62.562-50.716 113.278-113.277 113.277-62.562 0-113.278-50.716-113.278-113.277zM113.278 217.199c57.394 0 103.921-46.527 103.921-103.921 0-57.394-46.527-103.921-103.921-103.921-57.394 0-103.921 46.527-103.921 103.921 0 57.394 46.527 103.921 103.921 103.921z" data-fill-palette-color="accent" fill="#4d98e4" stroke="transparent"></path></g><g transform="matrix(1,0,0,1,74.27537622177755,48.436319337150564)"><svg viewBox="0 0 78.00470002906258 129.68281379831654" height="129.68281379831654" width="78.00470002906258"><g><svg xmlns="http://www.w3.org/2000/svg" xmlns:xlink="http://www.w3.org/1999/xlink" version="1.1" x="0" y="0" viewBox="29 16.5 40 66.5" enable-background="new 0 0 100 100" xml:space="preserve" height="129.68281379831654" width="78.00470002906258" class="icon-cg-0" data-fill-palette-color="accent" id="cg-0"><g fill="#4d98e4" data-fill-palette-color="accent"><path d="M49.049 59.338c1.178 0 2.322-0.127 3.451-0.318v19.246L49.099 83 45.5 78.266V59C47.579 59.369 48.272 59.338 49.049 59.338zM31.46 46.336c-1.548-2.871-2.46-6.14-2.46-9.637C29 25.543 37.953 16.5 49.001 16.5 60.048 16.5 69 25.543 69 36.699c0 3.59-0.941 6.951-2.57 9.871-0.119 0.194-0.223 0.191-0.351 0.38-0.037 0.066-0.095 0.332-0.134 0.397-3.7 5.445-9.901 9.014-16.931 9.014C41.562 56.361 35.054 52.339 31.46 46.336zM43.594 23.563c-3.07 0-5.559 2.514-5.559 5.614 0 3.101 2.489 5.615 5.559 5.615 3.07 0 5.56-2.515 5.56-5.615C49.153 26.077 46.664 23.563 43.594 23.563z" fill="#4d98e4" data-fill-palette-color="accent"></path></g></svg></g></svg></g></svg></g></svg></g></svg></g><defs></defs></svg><rect width="395.52" height="133.5303164910318" fill="none" stroke="none" visibility="hidden"></rect></g></svg></g></svg>